<svg width="1060" height="1060" viewBox="0 0 1060 1060" fill="none" xmlns="http://www.w3.org/2000/svg">
<path d="M401.355 495.662C397.424 498.624 391.753 497.862 389.535 493.468C387.191 488.823 385.577 483.825 384.769 478.648C383.501 470.524 384.256 462.212 386.967 454.45C389.679 446.687 394.262 439.713 400.313 434.145C406.363 428.577 413.694 424.587 421.654 422.528C429.615 420.47 437.961 420.407 445.952 422.344C453.943 424.281 461.333 428.16 467.467 433.635C473.601 439.111 478.29 446.015 481.119 453.735C482.921 458.655 483.933 463.809 484.134 469.009C484.323 473.927 479.733 477.342 474.859 476.657C469.984 475.972 466.717 471.408 466.044 466.532C465.731 464.266 465.175 462.031 464.383 459.867C462.562 454.899 459.545 450.456 455.597 446.933C451.65 443.409 446.894 440.913 441.752 439.667C436.61 438.42 431.239 438.461 426.116 439.785C420.993 441.11 416.276 443.677 412.383 447.26C408.489 450.844 405.539 455.332 403.795 460.327C402.05 465.322 401.564 470.671 402.38 475.899C402.736 478.176 403.333 480.4 404.158 482.534C405.932 487.125 405.286 492.7 401.355 495.662Z" fill="#BFFBF1"/>
<path d="M458.669 503.62C461.631 507.551 460.869 513.222 456.475 515.44C451.831 517.785 446.832 519.398 441.655 520.206C433.531 521.475 425.219 520.72 417.457 518.008C409.694 515.297 402.72 510.713 397.152 504.663C391.584 498.612 387.594 491.282 385.536 483.321C383.477 475.361 383.414 467.015 385.351 459.024C387.289 451.033 391.167 443.643 396.642 437.509C402.118 431.375 409.022 426.685 416.742 423.857C421.662 422.054 426.816 421.043 432.016 420.842C436.934 420.652 440.349 425.243 439.664 430.117C438.979 434.991 434.415 438.258 429.539 438.932C427.273 439.245 425.038 439.8 422.874 440.593C417.906 442.413 413.463 445.431 409.94 449.378C406.416 453.326 403.92 458.081 402.674 463.224C401.427 468.366 401.468 473.736 402.792 478.859C404.117 483.982 406.684 488.699 410.268 492.593C413.851 496.486 418.339 499.436 423.334 501.181C428.329 502.926 433.678 503.412 438.906 502.595C441.183 502.24 443.407 501.642 445.541 500.818C450.132 499.044 455.707 499.689 458.669 503.62Z" fill="#BFFBF1"/>
<path d="M514.587 511.339C517.462 515.579 514.044 521.239 508.953 520.669L476.076 516.987C469.885 516.294 468.721 507.791 474.498 505.46L482.242 502.335C484.757 501.32 486.279 498.744 485.953 496.05L484.959 487.837C484.202 481.589 492.35 478.54 495.881 483.749L514.587 511.339Z" fill="#BFFBF1"/>
<path d="M403.283 374.03C404.248 368.999 410.667 367.414 413.864 371.417L434.507 397.268C438.395 402.136 433.206 408.971 427.472 406.534L419.788 403.268C417.291 402.207 414.393 402.954 412.719 405.088L407.615 411.599C403.731 416.552 395.814 412.947 397 406.766L403.283 374.03Z" fill="#BFFBF1"/>
<path d="M337.031 500.534C332 499.569 330.415 493.15 334.417 489.953L360.268 469.309C365.136 465.422 371.971 470.611 369.535 476.344L366.269 484.029C365.208 486.526 365.954 489.424 368.089 491.097L374.6 496.202C379.552 500.085 375.947 508.002 369.767 506.816L337.031 500.534Z" fill="#BFFBF1"/>
<circle cx="433.391" cy="470.413" r="13.5" transform="rotate(120 433.391 470.413)" fill="#BFFBF1"/>
<path d="M195.169 423.022C194.569 418.137 198.065 413.606 202.979 413.883C208.174 414.174 213.31 415.276 218.197 417.165C225.867 420.129 232.687 424.938 238.054 431.168C243.421 437.397 247.169 444.854 248.966 452.878C250.763 460.902 250.553 469.245 248.355 477.168C246.157 485.092 242.04 492.351 236.366 498.302C230.693 504.254 223.639 508.715 215.83 511.29C208.021 513.864 199.698 514.473 191.597 513.063C186.435 512.164 181.466 510.463 176.863 508.037C172.508 505.742 171.846 500.059 174.877 496.18C177.907 492.302 183.493 491.754 188.052 493.609C190.171 494.471 192.384 495.107 194.655 495.503C199.868 496.41 205.224 496.018 210.249 494.362C215.274 492.705 219.813 489.834 223.464 486.004C227.115 482.174 229.765 477.503 231.179 472.404C232.594 467.305 232.729 461.936 231.572 456.773C230.416 451.609 228.004 446.811 224.551 442.802C221.097 438.793 216.708 435.698 211.772 433.791C209.622 432.96 207.398 432.366 205.137 432.013C200.274 431.254 195.769 427.907 195.169 423.022Z" fill="#BFFBF1"/>
<path d="M159.62 468.678C154.735 469.278 150.205 465.782 150.481 460.868C150.773 455.673 151.875 450.537 153.763 445.65C156.727 437.98 161.537 431.16 167.766 425.793C173.995 420.426 181.452 416.678 189.476 414.881C197.5 413.084 205.843 413.294 213.766 415.492C221.69 417.69 228.949 421.808 234.901 427.481C240.852 433.154 245.313 440.208 247.888 448.017C250.462 455.826 251.071 464.15 249.661 472.25C248.762 477.412 247.061 482.382 244.635 486.985C242.34 491.339 236.657 492.001 232.778 488.971C228.9 485.94 228.352 480.354 230.207 475.795C231.069 473.676 231.705 471.463 232.101 469.193C233.009 463.98 232.617 458.623 230.96 453.598C229.303 448.573 226.432 444.034 222.602 440.383C218.772 436.732 214.101 434.082 209.002 432.668C203.903 431.253 198.534 431.118 193.371 432.275C188.208 433.431 183.409 435.843 179.4 439.297C175.392 442.75 172.297 447.139 170.389 452.075C169.559 454.225 168.964 456.449 168.611 458.71C167.852 463.573 164.506 468.079 159.62 468.678Z" fill="#BFFBF1"/>
<path d="M124.977 513.245C119.868 513.614 116.675 507.824 119.714 503.701L139.341 477.07C143.037 472.055 150.982 475.298 150.112 481.467L148.947 489.735C148.568 492.421 150.039 495.027 152.534 496.091L160.144 499.337C165.933 501.806 164.5 510.386 158.223 510.84L124.977 513.245Z" fill="#BFFBF1"/>
<path d="M299.542 485.507C303.416 488.859 301.58 495.21 296.515 495.977L263.805 500.93C257.646 501.863 254.321 493.951 259.298 490.204L265.969 485.182C268.136 483.55 268.939 480.668 267.927 478.151L264.841 470.474C262.493 464.635 269.574 459.581 274.333 463.699L299.542 485.507Z" fill="#BFFBF1"/>
<path d="M223.112 364.879C226.464 361.005 232.815 362.842 233.582 367.906L238.535 400.616C239.467 406.776 231.556 410.1 227.809 405.123L222.787 398.453C221.155 396.286 218.272 395.483 215.755 396.495L208.079 399.581C202.24 401.928 197.186 394.848 201.304 390.088L223.112 364.879Z" fill="#BFFBF1"/>
<circle cx="201.018" cy="463.39" r="13.5" transform="rotate(-120 201.018 463.39)" fill="#BFFBF1"/>
<path d="M280.012 386.859C275.482 384.936 273.306 379.644 276.002 375.526C278.852 371.173 282.375 367.276 286.454 363.988C292.855 358.828 300.431 355.326 308.509 353.792C316.588 352.259 324.919 352.742 332.767 355.198C340.614 357.653 347.734 362.007 353.497 367.872C359.26 373.737 363.488 380.933 365.806 388.822C368.123 396.711 368.46 405.05 366.785 413.1C365.11 421.15 361.476 428.663 356.204 434.973C352.844 438.994 348.886 442.447 344.484 445.22C340.319 447.844 335.066 445.576 333.223 441.012C331.379 436.448 333.698 431.337 337.584 428.316C339.39 426.912 341.047 425.314 342.525 423.545C345.918 419.484 348.256 414.65 349.334 409.469C350.412 404.289 350.195 398.923 348.704 393.846C347.212 388.769 344.492 384.139 340.783 380.364C337.075 376.59 332.493 373.789 327.443 372.208C322.393 370.628 317.032 370.317 311.833 371.304C306.635 372.291 301.76 374.544 297.64 377.865C295.846 379.311 294.219 380.941 292.783 382.722C289.694 386.554 284.543 388.783 280.012 386.859Z" fill="#BFFBF1"/>
<path d="M346.887 431.706C350.367 435.186 350.402 440.908 346.36 443.716C342.087 446.685 337.362 448.979 332.348 450.5C324.479 452.886 316.144 453.296 308.079 451.692C300.014 450.088 292.47 446.519 286.114 441.303C279.758 436.087 274.786 429.383 271.64 421.787C268.493 414.19 267.268 405.935 268.074 397.752C268.88 389.569 271.692 381.711 276.26 374.874C280.828 368.037 287.012 362.433 294.264 358.557C298.884 356.087 303.848 354.367 308.968 353.445C313.812 352.572 317.834 356.643 317.834 361.565C317.834 366.487 313.769 370.357 309.035 371.703C306.834 372.329 304.699 373.19 302.666 374.276C298 376.77 294.02 380.377 291.08 384.777C288.141 389.176 286.331 394.233 285.813 399.499C285.294 404.765 286.082 410.077 288.107 414.966C290.132 419.854 293.331 424.168 297.422 427.525C301.512 430.882 306.367 433.178 311.556 434.21C316.746 435.242 322.11 434.979 327.174 433.443C329.379 432.774 331.498 431.872 333.496 430.759C337.796 428.363 343.407 428.226 346.887 431.706Z" fill="#BFFBF1"/>
<circle cx="317.897" cy="401.978" r="13.5" transform="rotate(-180 317.897 401.978)" fill="#BFFBF1"/>
<path d="M355.385 279.619C359.915 281.543 362.091 286.835 359.395 290.953C356.545 295.306 353.022 299.202 348.943 302.491C342.542 307.651 334.966 311.153 326.888 312.686C318.809 314.219 310.478 313.737 302.63 311.281C294.783 308.825 287.663 304.472 281.9 298.607C276.137 292.742 271.909 285.546 269.592 277.657C267.274 269.768 266.937 261.429 268.612 253.379C270.287 245.328 273.922 237.816 279.193 231.505C282.553 227.485 286.511 224.031 290.913 221.258C295.078 218.634 300.331 220.903 302.174 225.466C304.018 230.03 301.699 235.141 297.814 238.163C296.007 239.567 294.35 241.165 292.872 242.934C289.479 246.994 287.141 251.829 286.063 257.009C284.985 262.19 285.202 267.556 286.693 272.633C288.185 277.709 290.905 282.34 294.614 286.114C298.322 289.888 302.904 292.69 307.954 294.27C313.004 295.851 318.366 296.161 323.564 295.174C328.763 294.188 333.637 291.934 337.757 288.613C339.551 287.167 341.178 285.538 342.614 283.756C345.703 279.924 350.854 277.696 355.385 279.619Z" fill="#BFFBF1"/>
<path d="M333.62 226.004C335.543 221.474 340.835 219.298 344.953 221.994C349.306 224.845 353.203 228.367 356.491 232.446C361.651 238.848 365.153 246.423 366.687 254.501C368.22 262.58 367.737 270.912 365.281 278.759C362.826 286.606 358.472 293.726 352.607 299.489C346.742 305.252 339.547 309.48 331.657 311.798C323.768 314.115 315.429 314.452 307.379 312.777C299.329 311.102 291.816 307.468 285.506 302.196C281.485 298.837 278.032 294.878 275.259 290.476C272.635 286.312 274.903 281.059 279.467 279.215C284.031 277.371 289.142 279.69 292.163 283.576C293.567 285.382 295.165 287.04 296.934 288.517C300.995 291.91 305.829 294.249 311.01 295.326C316.19 296.404 321.556 296.188 326.633 294.696C331.71 293.205 336.341 290.484 340.115 286.776C343.889 283.067 346.69 278.485 348.271 273.435C349.851 268.385 350.162 263.024 349.175 257.825C348.188 252.627 345.935 247.752 342.614 243.632C341.168 241.838 339.538 240.211 337.757 238.775C333.925 235.686 331.696 230.535 333.62 226.004Z" fill="#BFFBF1"/>
<path d="M312.346 173.719C314.58 169.109 321.191 169.239 323.242 173.933L336.492 204.246C338.987 209.955 332.206 215.213 327.298 211.376L320.721 206.233C318.584 204.562 315.592 204.532 313.422 206.161L306.806 211.129C301.774 214.907 295.059 209.376 297.805 203.713L312.346 173.719Z" fill="#BFFBF1"/>
<path d="M249.084 338.766C244.245 340.445 239.663 335.679 241.531 330.909L253.597 300.106C255.869 294.305 264.382 295.382 265.139 301.565L266.153 309.853C266.482 312.546 268.578 314.682 271.263 315.065L279.454 316.23C285.685 317.117 286.521 325.776 280.576 327.839L249.084 338.766Z" fill="#BFFBF1"/>
<path d="M391.767 332.89C393.446 337.73 388.679 342.312 383.91 340.444L353.106 328.378C347.306 326.106 348.382 317.592 354.566 316.836L362.854 315.822C365.546 315.492 367.683 313.397 368.065 310.711L369.231 302.521C370.117 296.29 378.776 295.453 380.839 301.399L391.767 332.89Z" fill="#BFFBF1"/>
<circle cx="317.501" cy="264.5" r="13.5" fill="#BFFBF1"/>
<path d="M614.356 872.662C610.424 875.624 604.754 874.862 602.536 870.468C600.191 865.823 598.577 860.825 597.769 855.648C596.501 847.524 597.256 839.212 599.967 831.45C602.679 823.687 607.263 816.713 613.313 811.145C619.363 805.577 626.694 801.587 634.654 799.528C642.615 797.47 650.961 797.407 658.952 799.344C666.943 801.281 674.333 805.16 680.467 810.635C686.601 816.111 691.29 823.015 694.119 830.735C695.922 835.655 696.933 840.809 697.134 846.009C697.324 850.927 692.733 854.342 687.859 853.657C682.985 852.972 679.718 848.408 679.044 843.532C678.731 841.266 678.176 839.031 677.383 836.867C675.562 831.899 672.545 827.456 668.597 823.933C664.65 820.409 659.894 817.913 654.752 816.667C649.61 815.42 644.239 815.461 639.116 816.785C633.994 818.11 629.276 820.677 625.383 824.26C621.489 827.844 618.54 832.332 616.795 837.327C615.05 842.322 614.564 847.671 615.38 852.899C615.736 855.176 616.333 857.4 617.158 859.534C618.932 864.125 618.287 869.7 614.356 872.662Z" fill="#BFFBF1"/>
<path d="M671.669 880.62C674.631 884.551 673.869 890.222 669.475 892.44C664.831 894.785 659.832 896.398 654.655 897.206C646.531 898.475 638.219 897.72 630.457 895.008C622.694 892.297 615.72 887.713 610.152 881.663C604.584 875.612 600.594 868.282 598.536 860.321C596.477 852.361 596.414 844.015 598.351 836.024C600.289 828.033 604.167 820.643 609.642 814.509C615.118 808.375 622.022 803.685 629.743 800.857C634.662 799.054 639.817 798.043 645.016 797.842C649.934 797.652 653.349 802.243 652.664 807.117C651.979 811.991 647.415 815.258 642.539 815.932C640.273 816.245 638.039 816.8 635.875 817.593C630.906 819.413 626.463 822.431 622.94 826.378C619.416 830.326 616.921 835.081 615.674 840.224C614.427 845.366 614.468 850.736 615.792 855.859C617.117 860.982 619.685 865.699 623.268 869.593C626.851 873.486 631.339 876.436 636.334 878.181C641.33 879.926 646.678 880.412 651.906 879.595C654.183 879.24 656.407 878.642 658.541 877.818C663.132 876.044 668.707 876.689 671.669 880.62Z" fill="#BFFBF1"/>
<path d="M727.587 888.339C730.462 892.579 727.044 898.239 721.953 897.669L689.076 893.987C682.885 893.294 681.722 884.791 687.499 882.46L695.242 879.335C697.757 878.32 699.279 875.744 698.953 873.05L697.959 864.837C697.203 858.589 705.35 855.54 708.881 860.749L727.587 888.339Z" fill="#BFFBF1"/>
<path d="M616.283 751.03C617.248 745.999 623.667 744.414 626.864 748.417L647.508 774.268C651.395 779.136 646.206 785.97 640.472 783.534L632.788 780.268C630.291 779.207 627.393 779.953 625.719 782.088L620.615 788.599C616.732 793.551 608.814 789.946 610 783.766L616.283 751.03Z" fill="#BFFBF1"/>
<path d="M550.031 877.534C545 876.569 543.415 870.15 547.417 866.953L573.269 846.309C578.137 842.422 584.971 847.611 582.535 853.344L579.269 861.029C578.208 863.526 578.954 866.424 581.089 868.097L587.6 873.202C592.552 877.085 588.947 885.002 582.767 883.816L550.031 877.534Z" fill="#BFFBF1"/>
<circle cx="646.391" cy="847.413" r="13.5" transform="rotate(120 646.391 847.413)" fill="#BFFBF1"/>
<path d="M408.169 800.022C407.57 795.137 411.065 790.606 415.979 790.883C421.174 791.174 426.31 792.276 431.197 794.165C438.867 797.129 445.687 801.938 451.054 808.168C456.421 814.397 460.169 821.854 461.966 829.878C463.763 837.902 463.553 846.245 461.355 854.168C459.158 862.092 455.04 869.351 449.366 875.302C443.693 881.254 436.639 885.715 428.83 888.29C421.021 890.864 412.698 891.473 404.597 890.063C399.435 889.164 394.466 887.463 389.863 885.037C385.508 882.742 384.846 877.059 387.877 873.18C390.907 869.302 396.493 868.754 401.052 870.609C403.171 871.471 405.384 872.107 407.655 872.503C412.868 873.41 418.224 873.018 423.249 871.362C428.274 869.705 432.814 866.834 436.464 863.004C440.115 859.174 442.765 854.503 444.18 849.404C445.594 844.305 445.729 838.936 444.573 833.773C443.416 828.609 441.004 823.811 437.551 819.802C434.097 815.793 429.708 812.698 424.772 810.791C422.622 809.96 420.398 809.366 418.137 809.013C413.274 808.254 408.769 804.907 408.169 800.022Z" fill="#BFFBF1"/>
<path d="M372.62 845.678C367.735 846.278 363.205 842.782 363.481 837.868C363.773 832.673 364.875 827.537 366.763 822.65C369.727 814.98 374.537 808.16 380.766 802.793C386.995 797.426 394.452 793.678 402.476 791.881C410.5 790.084 418.843 790.294 426.766 792.492C434.69 794.69 441.949 798.808 447.901 804.481C453.853 810.154 458.313 817.208 460.888 825.017C463.462 832.826 464.071 841.15 462.661 849.25C461.762 854.412 460.061 859.382 457.635 863.985C455.34 868.339 449.657 869.001 445.779 865.971C441.9 862.94 441.353 857.354 443.207 852.795C444.069 850.676 444.705 848.463 445.101 846.193C446.009 840.98 445.617 835.623 443.96 830.598C442.303 825.573 439.433 821.034 435.602 817.383C431.772 813.732 427.101 811.082 422.002 809.668C416.903 808.253 411.535 808.118 406.371 809.275C401.208 810.431 396.409 812.843 392.4 816.297C388.392 819.75 385.297 824.139 383.389 829.075C382.559 831.225 381.964 833.449 381.612 835.71C380.852 840.573 377.506 845.079 372.62 845.678Z" fill="#BFFBF1"/>
<path d="M337.977 890.245C332.868 890.614 329.675 884.824 332.714 880.701L352.341 854.07C356.037 849.055 363.982 852.298 363.112 858.467L361.947 866.735C361.568 869.421 363.039 872.027 365.534 873.091L373.144 876.337C378.933 878.806 377.5 887.386 371.223 887.84L337.977 890.245Z" fill="#BFFBF1"/>
<path d="M512.542 862.507C516.416 865.859 514.58 872.21 509.515 872.977L476.805 877.93C470.646 878.863 467.321 870.951 472.298 867.204L478.969 862.182C481.136 860.55 481.939 857.668 480.927 855.151L477.841 847.474C475.493 841.635 482.574 836.581 487.333 840.699L512.542 862.507Z" fill="#BFFBF1"/>
<path d="M436.112 741.879C439.464 738.005 445.815 739.842 446.582 744.906L451.535 777.616C452.467 783.776 444.556 787.1 440.809 782.123L435.787 775.453C434.155 773.286 431.272 772.483 428.755 773.495L421.079 776.581C415.24 778.928 410.186 771.848 414.304 767.088L436.112 741.879Z" fill="#BFFBF1"/>
<circle cx="414.018" cy="840.39" r="13.5" transform="rotate(-120 414.018 840.39)" fill="#BFFBF1"/>
<path d="M493.012 763.859C488.482 761.936 486.306 756.644 489.002 752.526C491.852 748.173 495.375 744.276 499.454 740.988C505.856 735.828 513.431 732.326 521.509 730.792C529.588 729.259 537.919 729.742 545.767 732.198C553.614 734.653 560.734 739.007 566.497 744.872C572.26 750.737 576.488 757.933 578.806 765.822C581.123 773.711 581.46 782.05 579.785 790.1C578.11 798.15 574.476 805.663 569.204 811.973C565.844 815.994 561.886 819.447 557.484 822.22C553.32 824.844 548.067 822.576 546.223 818.012C544.379 813.448 546.698 808.337 550.584 805.316C552.39 803.912 554.047 802.314 555.525 800.545C558.918 796.484 561.256 791.65 562.334 786.469C563.412 781.289 563.196 775.923 561.704 770.846C560.213 765.769 557.492 761.139 553.784 757.364C550.075 753.59 545.493 750.789 540.443 749.208C535.393 747.628 530.032 747.317 524.833 748.304C519.635 749.291 514.76 751.544 510.64 754.865C508.846 756.311 507.219 757.941 505.783 759.722C502.694 763.554 497.543 765.783 493.012 763.859Z" fill="#BFFBF1"/>
<path d="M559.887 808.706C563.368 812.186 563.403 817.908 559.36 820.716C555.087 823.685 550.362 825.979 545.348 827.5C537.479 829.886 529.144 830.296 521.079 828.692C513.015 827.088 505.47 823.519 499.114 818.303C492.758 813.087 487.786 806.383 484.64 798.787C481.493 791.19 480.268 782.935 481.074 774.752C481.88 766.569 484.692 758.711 489.26 751.874C493.828 745.037 500.012 739.433 507.264 735.557C511.885 733.087 516.848 731.367 521.968 730.445C526.813 729.572 530.834 733.643 530.834 738.565C530.834 743.487 526.769 747.357 522.035 748.703C519.834 749.329 517.699 750.19 515.666 751.276C511 753.77 507.02 757.377 504.081 761.777C501.141 766.176 499.331 771.233 498.813 776.499C498.294 781.765 499.082 787.077 501.107 791.966C503.132 796.854 506.331 801.168 510.422 804.525C514.512 807.882 519.367 810.178 524.556 811.21C529.746 812.242 535.11 811.979 540.174 810.443C542.379 809.774 544.498 808.872 546.496 807.759C550.796 805.363 556.407 805.226 559.887 808.706Z" fill="#BFFBF1"/>
<circle cx="530.897" cy="778.978" r="13.5" transform="rotate(-180 530.897 778.978)" fill="#BFFBF1"/>
<path d="M568.385 656.619C572.916 658.543 575.091 663.835 572.395 667.953C569.545 672.306 566.022 676.202 561.943 679.491C555.542 684.651 547.966 688.153 539.888 689.686C531.81 691.219 523.478 690.737 515.631 688.281C507.783 685.825 500.663 681.472 494.9 675.607C489.137 669.742 484.909 662.546 482.592 654.657C480.274 646.768 479.938 638.429 481.612 630.379C483.287 622.328 486.922 614.816 492.193 608.505C495.553 604.485 499.511 601.031 503.913 598.258C508.078 595.634 513.331 597.903 515.174 602.466C517.018 607.03 514.699 612.141 510.814 615.163C509.008 616.567 507.35 618.165 505.872 619.934C502.48 623.994 500.141 628.829 499.063 634.009C497.985 639.19 498.202 644.556 499.693 649.633C501.185 654.709 503.905 659.34 507.614 663.114C511.322 666.888 515.904 669.69 520.954 671.27C526.004 672.851 531.366 673.161 536.564 672.174C541.763 671.188 546.638 668.934 550.757 665.613C552.551 664.167 554.178 662.538 555.614 660.756C558.703 656.924 563.854 654.696 568.385 656.619Z" fill="#BFFBF1"/>
<path d="M546.62 603.004C548.543 598.474 553.835 596.298 557.953 598.994C562.306 601.845 566.203 605.367 569.491 609.446C574.652 615.848 578.153 623.423 579.687 631.501C581.22 639.58 580.737 647.912 578.282 655.759C575.826 663.606 571.472 670.726 565.607 676.489C559.742 682.252 552.547 686.48 544.657 688.798C536.768 691.115 528.429 691.452 520.379 689.777C512.329 688.102 504.816 684.468 498.506 679.196C494.485 675.837 491.032 671.878 488.259 667.476C485.635 663.312 487.903 658.059 492.467 656.215C497.031 654.371 502.142 656.69 505.163 660.576C506.567 662.382 508.165 664.04 509.934 665.517C513.995 668.91 518.829 671.249 524.01 672.326C529.19 673.404 534.556 673.188 539.633 671.696C544.71 670.205 549.341 667.484 553.115 663.776C556.889 660.067 559.69 655.485 561.271 650.435C562.851 645.385 563.162 640.024 562.175 634.825C561.188 629.627 558.935 624.752 555.614 620.632C554.168 618.838 552.538 617.211 550.757 615.775C546.925 612.686 544.697 607.535 546.62 603.004Z" fill="#BFFBF1"/>
<path d="M525.346 550.719C527.58 546.109 534.191 546.239 536.242 550.933L549.492 581.246C551.987 586.955 545.206 592.213 540.299 588.376L533.721 583.233C531.584 581.562 528.592 581.532 526.422 583.161L519.806 588.129C514.774 591.907 508.06 586.376 510.805 580.713L525.346 550.719Z" fill="#BFFBF1"/>
<path d="M462.084 715.766C457.245 717.445 452.663 712.679 454.531 707.909L466.597 677.106C468.869 671.305 477.382 672.382 478.139 678.565L479.153 686.853C479.483 689.546 481.578 691.682 484.263 692.065L492.454 693.23C498.685 694.117 499.521 702.776 493.576 704.839L462.084 715.766Z" fill="#BFFBF1"/>
<path d="M604.767 709.89C606.446 714.73 601.68 719.312 596.91 717.444L566.106 705.378C560.306 703.106 561.382 694.592 567.566 693.836L575.854 692.822C578.546 692.492 580.683 690.397 581.065 687.711L582.231 679.521C583.117 673.29 591.776 672.453 593.839 678.399L604.767 709.89Z" fill="#BFFBF1"/>
<circle cx="530.501" cy="641.5" r="13.5" fill="#BFFBF1"/>
<path d="M448.054 186.682C451.985 183.72 457.656 184.482 459.874 188.876C462.219 193.521 463.833 198.52 464.641 203.697C465.909 211.821 465.154 220.132 462.442 227.895C459.731 235.658 455.147 242.632 449.097 248.2C443.046 253.768 435.716 257.758 427.755 259.816C419.795 261.874 411.449 261.938 403.458 260C395.467 258.063 388.077 254.185 381.943 248.709C375.809 243.234 371.119 236.33 368.291 228.609C366.488 223.69 365.477 218.535 365.276 213.336C365.086 208.418 369.677 205.002 374.551 205.688C379.425 206.373 382.692 210.936 383.366 215.812C383.679 218.078 384.234 220.313 385.027 222.477C386.847 227.446 389.865 231.888 393.812 235.412C397.76 238.935 402.515 241.431 407.658 242.678C412.8 243.925 418.171 243.884 423.293 242.559C428.416 241.235 433.133 238.667 437.027 235.084C440.92 231.501 443.87 227.013 445.615 222.018C447.36 217.022 447.846 211.674 447.03 206.446C446.674 204.168 446.076 201.945 445.252 199.811C443.478 195.22 444.123 189.644 448.054 186.682Z" fill="#BFFBF1"/>
<path d="M390.74 178.724C387.779 174.793 388.54 169.122 392.934 166.904C397.579 164.559 402.578 162.946 407.755 162.138C415.879 160.87 424.19 161.625 431.953 164.336C439.716 167.047 446.69 171.631 452.258 177.681C457.826 183.732 461.816 191.062 463.874 199.023C465.933 206.984 465.996 215.329 464.058 223.32C462.121 231.311 458.243 238.701 452.767 244.835C447.292 250.97 440.388 255.659 432.667 258.488C427.748 260.29 422.593 261.302 417.394 261.502C412.476 261.692 409.06 257.101 409.746 252.227C410.431 247.353 414.995 244.086 419.87 243.412C422.137 243.099 424.371 242.544 426.535 241.751C431.504 239.931 435.946 236.913 439.47 232.966C442.994 229.018 445.489 224.263 446.736 219.121C447.983 213.978 447.942 208.608 446.617 203.485C445.293 198.362 442.725 193.645 439.142 189.751C435.559 185.858 431.071 182.908 426.076 181.163C421.08 179.419 415.732 178.933 410.504 179.749C408.227 180.104 406.003 180.702 403.869 181.527C399.278 183.301 393.702 182.655 390.74 178.724Z" fill="#BFFBF1"/>
<path d="M334.823 171.005C331.948 166.765 335.366 161.105 340.457 161.675L373.334 165.357C379.525 166.051 380.688 174.553 374.911 176.884L367.168 180.009C364.653 181.024 363.131 183.601 363.457 186.294L364.451 194.507C365.207 200.755 357.06 203.804 353.528 198.595L334.823 171.005Z" fill="#BFFBF1"/>
<path d="M446.127 308.315C445.162 313.345 438.743 314.931 435.546 310.928L414.902 285.077C411.015 280.209 416.204 273.374 421.937 275.811L429.622 279.076C432.119 280.137 435.017 279.391 436.69 277.256L441.795 270.746C445.678 265.793 453.595 269.398 452.409 275.579L446.127 308.315Z" fill="#BFFBF1"/>
<path d="M512.379 181.81C517.41 182.776 518.995 189.195 514.992 192.391L489.141 213.035C484.273 216.923 477.439 211.734 479.875 206L483.141 198.315C484.202 195.819 483.456 192.921 481.321 191.247L474.81 186.142C469.858 182.259 473.463 174.342 479.643 175.528L512.379 181.81Z" fill="#BFFBF1"/>
<circle cx="416.018" cy="211.932" r="13.5" transform="rotate(-60 416.018 211.932)" fill="#BFFBF1"/>
<path d="M654.241 259.322C654.84 264.208 651.345 268.738 646.431 268.462C641.236 268.17 636.1 267.068 631.213 265.179C623.543 262.215 616.722 257.406 611.355 251.176C605.988 244.947 602.24 237.49 600.444 229.466C598.647 221.443 598.857 213.099 601.054 205.176C603.252 197.253 607.37 189.994 613.044 184.042C618.717 178.09 625.77 173.629 633.58 171.055C641.389 168.48 649.712 167.871 657.813 169.282C662.974 170.18 667.944 171.882 672.547 174.307C676.901 176.602 677.564 182.285 674.533 186.164C671.503 190.042 665.917 190.59 661.358 188.736C659.238 187.874 657.026 187.237 654.755 186.842C649.542 185.934 644.186 186.326 639.161 187.983C634.135 189.639 629.596 192.51 625.945 196.34C622.295 200.17 619.645 204.841 618.23 209.94C616.816 215.039 616.681 220.408 617.837 225.571C618.993 230.735 621.405 235.533 624.859 239.542C628.313 243.551 632.702 246.646 637.638 248.553C639.787 249.384 642.012 249.978 644.272 250.331C649.136 251.09 653.641 254.437 654.241 259.322Z" fill="#BFFBF1"/>
<path d="M689.789 213.666C694.675 213.067 699.205 216.562 698.929 221.476C698.637 226.671 697.535 231.807 695.647 236.694C692.683 244.364 687.873 251.184 681.644 256.551C675.414 261.918 667.957 265.666 659.934 267.463C651.91 269.26 643.567 269.05 635.643 266.852C627.72 264.654 620.461 260.537 614.509 254.863C608.557 249.19 604.097 242.136 601.522 234.327C598.947 226.518 598.338 218.195 599.749 210.094C600.648 204.932 602.349 199.963 604.775 195.36C607.069 191.005 612.753 190.343 616.631 193.374C620.51 196.404 621.057 201.99 619.203 206.549C618.341 208.668 617.704 210.881 617.309 213.152C616.401 218.365 616.793 223.721 618.45 228.746C620.107 233.771 622.977 238.31 626.807 241.961C630.637 245.612 635.309 248.262 640.407 249.676C645.506 251.091 650.875 251.226 656.039 250.07C661.202 248.913 666.001 246.501 670.009 243.048C674.018 239.594 677.113 235.205 679.02 230.269C679.851 228.119 680.445 225.895 680.798 223.634C681.557 218.771 684.904 214.266 689.789 213.666Z" fill="#BFFBF1"/>
<path d="M724.433 169.099C729.542 168.73 732.735 174.52 729.696 178.643L710.069 205.275C706.373 210.29 698.428 207.046 699.297 200.877L700.463 192.609C700.842 189.923 699.371 187.317 696.876 186.253L689.265 183.007C683.477 180.538 684.91 171.958 691.187 171.504L724.433 169.099Z" fill="#BFFBF1"/>
<path d="M549.867 196.837C545.993 193.486 547.83 187.134 552.895 186.367L585.604 181.415C591.764 180.482 595.088 188.393 590.112 192.14L583.441 197.162C581.274 198.794 580.471 201.677 581.483 204.194L584.569 211.87C586.917 217.709 579.836 222.763 575.077 218.646L549.867 196.837Z" fill="#BFFBF1"/>
<path d="M626.298 317.465C622.946 321.339 616.594 319.503 615.828 314.438L610.875 281.728C609.942 275.569 617.854 272.244 621.601 277.221L626.623 283.891C628.255 286.059 631.137 286.861 633.654 285.849L641.331 282.763C647.17 280.416 652.224 287.496 648.106 292.256L626.298 317.465Z" fill="#BFFBF1"/>
<circle cx="648.392" cy="218.954" r="13.5" transform="rotate(60 648.392 218.954)" fill="#BFFBF1"/>
<path d="M569.397 295.485C573.928 297.408 576.104 302.701 573.407 306.818C570.557 311.171 567.035 315.068 562.956 318.356C556.554 323.517 548.979 327.019 540.9 328.552C532.822 330.085 524.49 329.602 516.643 327.147C508.796 324.691 501.675 320.338 495.912 314.473C490.149 308.607 485.922 301.412 483.604 293.523C481.286 285.633 480.95 277.294 482.625 269.244C484.3 261.194 487.934 253.681 493.206 247.371C496.565 243.35 500.523 239.897 504.926 237.124C509.09 234.5 514.343 236.768 516.187 241.332C518.03 245.896 515.712 251.007 511.826 254.028C510.02 255.433 508.362 257.031 506.885 258.799C503.492 262.86 501.153 267.695 500.076 272.875C498.998 278.055 499.214 283.422 500.706 288.498C502.197 293.575 504.918 298.206 508.626 301.98C512.335 305.754 516.917 308.556 521.967 310.136C527.016 311.716 532.378 312.027 537.577 311.04C542.775 310.053 547.65 307.8 551.77 304.479C553.564 303.033 555.191 301.403 556.627 299.622C559.716 295.79 564.867 293.562 569.397 295.485Z" fill="#BFFBF1"/>
<path d="M502.523 250.638C499.042 247.158 499.007 241.436 503.05 238.628C507.323 235.659 512.048 233.366 517.062 231.845C524.93 229.458 533.266 229.048 541.331 230.652C549.395 232.257 556.94 235.825 563.296 241.041C569.652 246.257 574.624 252.961 577.77 260.558C580.917 268.154 582.141 276.41 581.335 284.593C580.529 292.775 577.718 300.633 573.15 307.47C568.581 314.307 562.398 319.912 555.146 323.788C550.525 326.258 545.562 327.977 540.441 328.899C535.597 329.772 531.576 325.702 531.576 320.78C531.576 315.857 535.64 311.987 540.375 310.641C542.575 310.015 544.711 309.155 546.744 308.068C551.41 305.574 555.39 301.967 558.329 297.568C561.269 293.168 563.078 288.111 563.597 282.845C564.116 277.58 563.328 272.267 561.303 267.379C559.278 262.49 556.078 258.176 551.988 254.82C547.898 251.463 543.043 249.167 537.853 248.134C532.664 247.102 527.3 247.365 522.236 248.901C520.031 249.57 517.912 250.472 515.913 251.586C511.614 253.982 506.003 254.119 502.523 250.638Z" fill="#BFFBF1"/>
<circle cx="531.513" cy="280.366" r="13.5" fill="#BFFBF1"/>
<path d="M494.025 402.725C489.494 400.802 487.319 395.51 490.015 391.392C492.865 387.039 496.387 383.142 500.466 379.854C506.868 374.694 514.444 371.192 522.522 369.658C530.6 368.125 538.932 368.608 546.779 371.064C554.627 373.519 561.747 377.873 567.51 383.738C573.273 389.603 577.501 396.798 579.818 404.688C582.136 412.577 582.472 420.916 580.797 428.966C579.123 437.016 575.488 444.529 570.216 450.839C566.857 454.86 562.899 458.313 558.497 461.086C554.332 463.71 549.079 461.442 547.236 456.878C545.392 452.314 547.711 447.203 551.596 444.182C553.402 442.778 555.06 441.18 556.538 439.411C559.93 435.35 562.269 430.516 563.347 425.335C564.425 420.155 564.208 414.789 562.717 409.712C561.225 404.635 558.505 400.004 554.796 396.23C551.088 392.456 546.505 389.655 541.456 388.074C536.406 386.494 531.044 386.183 525.846 387.17C520.647 388.157 515.772 390.41 511.653 393.731C509.858 395.177 508.231 396.807 506.796 398.588C503.707 402.42 498.556 404.649 494.025 402.725Z" fill="#BFFBF1"/>
<path d="M515.79 456.34C513.866 460.871 508.574 463.046 504.457 460.35C500.104 457.5 496.207 453.977 492.919 449.898C487.758 443.497 484.256 435.921 482.723 427.843C481.19 419.764 481.672 411.433 484.128 403.585C486.584 395.738 490.937 388.618 496.802 382.855C502.667 377.092 509.863 372.864 517.752 370.547C525.641 368.229 533.98 367.892 542.031 369.567C550.081 371.242 557.594 374.877 563.904 380.148C567.924 383.508 571.378 387.466 574.151 391.868C576.775 396.033 574.507 401.286 569.943 403.129C565.379 404.973 560.268 402.654 557.247 398.769C555.842 396.962 554.244 395.305 552.476 393.827C548.415 390.434 543.58 388.096 538.4 387.018C533.22 385.94 527.853 386.157 522.777 387.648C517.7 389.14 513.069 391.86 509.295 395.569C505.521 399.277 502.719 403.859 501.139 408.909C499.559 413.959 499.248 419.321 500.235 424.519C501.221 429.718 503.475 434.592 506.796 438.712C508.242 440.506 509.872 442.133 511.653 443.569C515.485 446.658 517.713 451.809 515.79 456.34Z" fill="#BFFBF1"/>
<path d="M537.064 508.626C534.83 513.235 528.219 513.105 526.167 508.412L512.918 478.098C510.423 472.39 517.204 467.131 522.111 470.969L528.689 476.112C530.826 477.783 533.818 477.812 535.987 476.183L542.603 471.216C547.636 467.437 554.35 472.968 551.605 478.631L537.064 508.626Z" fill="#BFFBF1"/>
<path d="M600.325 343.578C605.165 341.899 609.747 346.665 607.879 351.435L595.813 382.239C593.541 388.039 585.028 386.963 584.271 380.779L583.257 372.491C582.927 369.798 580.832 367.662 578.146 367.28L569.956 366.114C563.725 365.228 562.888 356.569 568.834 354.506L600.325 343.578Z" fill="#BFFBF1"/>
<path d="M457.643 349.454C455.964 344.615 460.73 340.032 465.5 341.9L496.304 353.966C502.104 356.238 501.028 364.752 494.844 365.508L486.556 366.523C483.863 366.852 481.727 368.947 481.345 371.633L480.179 379.824C479.293 386.054 470.634 386.891 468.571 380.945L457.643 349.454Z" fill="#BFFBF1"/>
<circle cx="531.909" cy="417.844" r="13.5" transform="rotate(-180 531.909 417.844)" fill="#BFFBF1"/>
<path d="M787.987 282.166C792.518 284.09 794.694 289.382 791.997 293.5C789.147 297.852 785.625 301.749 781.546 305.037C775.144 310.198 767.569 313.7 759.49 315.233C751.412 316.766 743.08 316.284 735.233 313.828C727.386 311.372 720.265 307.019 714.502 301.154C708.739 295.289 704.512 288.093 702.194 280.204C699.876 272.315 699.54 263.976 701.215 255.925C702.89 247.875 706.524 240.362 711.796 234.052C715.155 230.032 719.113 226.578 723.516 223.805C727.68 221.181 732.933 223.45 734.777 228.013C736.62 232.577 734.302 237.688 730.416 240.709C728.61 242.114 726.952 243.712 725.475 245.48C722.082 249.541 719.743 254.376 718.666 259.556C717.588 264.736 717.804 270.103 719.296 275.18C720.787 280.256 723.508 284.887 727.216 288.661C730.925 292.435 735.507 295.237 740.557 296.817C745.606 298.397 750.968 298.708 756.167 297.721C761.365 296.735 766.24 294.481 770.36 291.16C772.154 289.714 773.781 288.084 775.217 286.303C778.306 282.471 783.457 280.243 787.987 282.166Z" fill="#BFFBF1"/>
<path d="M766.222 228.552C768.146 224.022 773.438 221.846 777.556 224.542C781.909 227.392 785.806 230.915 789.094 234.994C794.254 241.395 797.756 248.971 799.289 257.049C800.823 265.128 800.34 273.459 797.884 281.307C795.428 289.154 791.075 296.274 785.21 302.037C779.345 307.8 772.149 312.028 764.26 314.346C756.371 316.663 748.032 317 739.982 315.325C731.932 313.65 724.419 310.016 718.109 304.744C714.088 301.384 710.635 297.426 707.861 293.024C705.238 288.86 707.506 283.606 712.07 281.763C716.633 279.919 721.744 282.238 724.766 286.124C726.17 287.93 727.768 289.587 729.537 291.065C733.597 294.458 738.432 296.796 743.612 297.874C748.793 298.952 754.159 298.736 759.236 297.244C764.313 295.753 768.943 293.032 772.717 289.323C776.492 285.615 779.293 281.033 780.873 275.983C782.454 270.933 782.764 265.572 781.778 260.373C780.791 255.175 778.537 250.3 775.217 246.18C773.77 244.386 772.141 242.759 770.36 241.323C766.528 238.234 764.299 233.083 766.222 228.552Z" fill="#BFFBF1"/>
<path d="M744.948 176.266C747.183 171.657 753.794 171.787 755.845 176.481L769.095 206.794C771.59 212.502 764.809 217.761 759.901 213.924L753.324 208.78C751.187 207.109 748.194 207.08 746.025 208.709L739.409 213.676C734.377 217.455 727.662 211.924 730.407 206.261L744.948 176.266Z" fill="#BFFBF1"/>
<path d="M681.687 341.313C676.848 342.993 672.265 338.226 674.134 333.457L686.199 302.653C688.471 296.852 696.985 297.929 697.742 304.113L698.756 312.4C699.085 315.093 701.18 317.23 703.866 317.612L712.057 318.777C718.288 319.664 719.124 328.323 713.179 330.386L681.687 341.313Z" fill="#BFFBF1"/>
<path d="M824.369 335.437C826.048 340.277 821.282 344.859 816.512 342.991L785.709 330.925C779.908 328.653 780.985 320.139 787.168 319.383L795.456 318.369C798.149 318.039 800.285 315.944 800.668 313.258L801.833 305.067C802.72 298.837 811.379 298 813.442 303.946L824.369 335.437Z" fill="#BFFBF1"/>
<circle cx="750.103" cy="267.047" r="13.5" fill="#BFFBF1"/>
<path d="M828.173 497.049C824.241 500.011 818.571 499.249 816.353 494.855C814.008 490.21 812.394 485.212 811.586 480.035C810.318 471.911 811.073 463.599 813.784 455.837C816.496 448.074 821.08 441.1 827.13 435.532C833.18 429.964 840.511 425.974 848.471 423.915C856.432 421.857 864.778 421.794 872.769 423.731C880.76 425.668 888.15 429.547 894.284 435.022C900.418 440.498 905.107 447.402 907.936 455.122C909.739 460.042 910.75 465.196 910.951 470.395C911.141 475.314 906.55 478.729 901.676 478.044C896.802 477.359 893.535 472.795 892.861 467.919C892.548 465.653 891.993 463.418 891.2 461.254C889.379 456.286 886.362 451.843 882.414 448.32C878.467 444.796 873.711 442.3 868.569 441.054C863.427 439.807 858.056 439.848 852.933 441.172C847.811 442.497 843.093 445.064 839.2 448.647C835.306 452.23 832.357 456.718 830.612 461.714C828.867 466.709 828.381 472.058 829.197 477.286C829.553 479.563 830.15 481.787 830.975 483.921C832.749 488.512 832.104 494.087 828.173 497.049Z" fill="#BFFBF1"/>
<path d="M885.486 505.007C888.448 508.938 887.686 514.609 883.292 516.827C878.648 519.172 873.649 520.785 868.472 521.593C860.348 522.861 852.036 522.106 844.274 519.395C836.511 516.684 829.537 512.1 823.969 506.049C818.401 499.999 814.411 492.669 812.353 484.708C810.294 476.747 810.231 468.402 812.168 460.411C814.106 452.42 817.984 445.03 823.459 438.896C828.935 432.761 835.839 428.072 843.56 425.243C848.479 423.441 853.634 422.429 858.833 422.229C863.751 422.039 867.166 426.63 866.481 431.504C865.796 436.378 861.232 439.645 856.357 440.319C854.09 440.632 851.856 441.187 849.692 441.98C844.723 443.8 840.28 446.818 836.757 450.765C833.233 454.713 830.738 459.468 829.491 464.61C828.244 469.753 828.285 475.123 829.609 480.246C830.934 485.369 833.502 490.086 837.085 493.98C840.668 497.873 845.156 500.823 850.151 502.568C855.147 504.312 860.495 504.798 865.723 503.982C868 503.627 870.224 503.029 872.358 502.204C876.949 500.43 882.524 501.076 885.486 505.007Z" fill="#BFFBF1"/>
<path d="M941.404 512.726C944.279 516.966 940.861 522.626 935.77 522.056L902.893 518.374C896.702 517.68 895.538 509.178 901.316 506.847L909.059 503.722C911.574 502.707 913.096 500.13 912.77 497.437L911.776 489.224C911.019 482.976 919.167 479.927 922.698 485.136L941.404 512.726Z" fill="#BFFBF1"/>
<path d="M830.1 375.416C831.065 370.386 837.484 368.8 840.681 372.803L861.325 398.654C865.212 403.522 860.023 410.357 854.289 407.92L846.605 404.655C844.108 403.594 841.21 404.34 839.536 406.475L834.432 412.985C830.549 417.938 822.631 414.333 823.817 408.152L830.1 375.416Z" fill="#BFFBF1"/>
<path d="M763.848 501.921C758.817 500.956 757.232 494.537 761.235 491.34L787.086 470.696C791.954 466.809 798.788 471.998 796.352 477.731L793.086 485.416C792.025 487.913 792.771 490.811 794.906 492.484L801.417 497.589C806.369 501.472 802.764 509.389 796.584 508.203L763.848 501.921Z" fill="#BFFBF1"/>
<circle cx="860.208" cy="471.799" r="13.5" transform="rotate(120 860.208 471.799)" fill="#BFFBF1"/>
<path d="M754.433 441.654C755.033 446.54 751.537 451.07 746.623 450.794C741.428 450.502 736.292 449.4 731.405 447.511C723.735 444.547 716.915 439.738 711.548 433.508C706.181 427.279 702.433 419.822 700.636 411.798C698.839 403.775 699.049 395.431 701.247 387.508C703.445 379.585 707.563 372.326 713.236 366.374C718.909 360.422 725.963 355.961 733.772 353.387C741.581 350.812 749.904 350.203 758.005 351.614C763.167 352.512 768.137 354.214 772.739 356.639C777.094 358.934 777.756 364.618 774.726 368.496C771.695 372.374 766.109 372.922 761.55 371.068C759.431 370.206 757.218 369.569 754.947 369.174C749.735 368.266 744.378 368.658 739.353 370.315C734.328 371.971 729.789 374.842 726.138 378.672C722.487 382.502 719.837 387.173 718.423 392.272C717.008 397.371 716.873 402.74 718.03 407.903C719.186 413.067 721.598 417.865 725.051 421.874C728.505 425.883 732.894 428.978 737.83 430.885C739.98 431.716 742.204 432.31 744.465 432.663C749.328 433.422 753.833 436.769 754.433 441.654Z" fill="#BFFBF1"/>
<path d="M759.834 361.315C761.108 356.561 766.046 353.67 770.499 355.767C775.206 357.983 779.555 360.928 783.379 364.51C789.381 370.131 793.903 377.145 796.546 384.931C799.189 392.718 799.871 401.035 798.532 409.148C797.193 417.261 793.873 424.918 788.867 431.441C783.862 437.965 777.325 443.153 769.835 446.546C762.345 449.94 754.135 451.434 745.93 450.896C737.725 450.358 729.779 447.805 722.796 443.463C718.347 440.697 714.376 437.258 711.017 433.285C707.839 429.526 709.354 424.008 713.617 421.547C717.879 419.086 723.263 420.671 726.796 424.098C728.438 425.691 730.252 427.11 732.209 428.327C736.702 431.121 741.815 432.764 747.095 433.11C752.375 433.456 757.659 432.495 762.479 430.311C767.299 428.127 771.505 424.789 774.726 420.591C777.948 416.393 780.084 411.465 780.946 406.245C781.808 401.024 781.369 395.671 779.668 390.661C777.967 385.65 775.057 381.137 771.195 377.519C769.513 375.944 767.673 374.56 765.709 373.386C761.484 370.86 758.56 366.07 759.834 361.315Z" fill="#BFFBF1"/>
<circle cx="748.584" cy="401.286" r="13.5" transform="rotate(60 748.584 401.286)" fill="#BFFBF1"/>
<path d="M623.874 430C623.275 425.114 626.77 420.584 631.684 420.86C636.879 421.152 642.015 422.254 646.902 424.143C654.572 427.106 661.392 431.916 666.759 438.145C672.126 444.375 675.874 451.832 677.671 459.855C679.468 467.879 679.258 476.222 677.06 484.146C674.863 492.069 670.745 499.328 665.071 505.28C659.398 511.232 652.344 515.693 644.535 518.267C636.726 520.842 628.403 521.451 620.302 520.04C615.14 519.141 610.171 517.44 605.568 515.014C601.213 512.72 600.551 507.036 603.582 503.158C606.612 499.279 612.198 498.732 616.757 500.586C618.876 501.448 621.089 502.085 623.36 502.48C628.573 503.388 633.929 502.996 638.954 501.339C643.98 499.682 648.519 496.812 652.169 492.982C655.82 489.152 658.47 484.48 659.885 479.382C661.299 474.283 661.434 468.914 660.278 463.75C659.121 458.587 656.71 453.788 653.256 449.78C649.802 445.771 645.413 442.676 640.477 440.769C638.327 439.938 636.103 439.344 633.842 438.991C628.979 438.232 624.474 434.885 623.874 430Z" fill="#BFFBF1"/>
<path d="M588.325 475.656C583.44 476.256 578.909 472.76 579.185 467.846C579.477 462.651 580.579 457.515 582.468 452.628C585.432 444.958 590.241 438.138 596.471 432.771C602.7 427.404 610.157 423.656 618.181 421.859C626.205 420.062 634.548 420.272 642.471 422.47C650.394 424.668 657.654 428.785 663.605 434.459C669.557 440.132 674.018 447.186 676.592 454.995C679.167 462.804 679.776 471.127 678.366 479.228C677.467 484.39 675.766 489.359 673.34 493.962C671.045 498.317 665.362 498.979 661.483 495.948C657.605 492.918 657.057 487.332 658.912 482.773C659.773 480.654 660.41 478.441 660.805 476.17C661.713 470.957 661.321 465.601 659.664 460.576C658.008 455.551 655.137 451.012 651.307 447.361C647.477 443.71 642.806 441.06 637.707 439.646C632.608 438.231 627.239 438.096 622.076 439.253C616.912 440.409 612.114 442.821 608.105 446.274C604.096 449.728 601.001 454.117 599.094 459.053C598.263 461.203 597.669 463.427 597.316 465.688C596.557 470.551 593.21 475.056 588.325 475.656Z" fill="#BFFBF1"/>
<path d="M553.681 520.223C548.572 520.592 545.379 514.802 548.418 510.679L568.046 484.048C571.742 479.033 579.686 482.276 578.817 488.445L577.651 496.713C577.273 499.399 578.744 502.005 581.239 503.069L588.849 506.315C594.638 508.784 593.205 517.364 586.928 517.818L553.681 520.223Z" fill="#BFFBF1"/>
<path d="M728.247 492.485C732.121 495.836 730.285 502.188 725.22 502.955L692.51 507.907C686.351 508.84 683.026 500.929 688.003 497.182L694.673 492.16C696.841 490.528 697.643 487.645 696.631 485.128L693.545 477.452C691.198 471.613 698.278 466.559 703.038 470.676L728.247 492.485Z" fill="#BFFBF1"/>
<path d="M651.817 371.856C655.169 367.982 661.52 369.819 662.287 374.883L667.24 407.593C668.172 413.753 660.261 417.077 656.514 412.1L651.492 405.43C649.86 403.263 646.977 402.46 644.461 403.472L636.784 406.558C630.945 408.905 625.891 401.825 630.009 397.065L651.817 371.856Z" fill="#BFFBF1"/>
<circle cx="629.723" cy="470.368" r="13.5" transform="rotate(-120 629.723 470.368)" fill="#BFFBF1"/>
<path d="M876.638 628.656C877.238 633.542 873.742 638.072 868.828 637.796C863.633 637.504 858.497 636.402 853.61 634.513C845.94 631.549 839.12 626.74 833.753 620.51C828.386 614.281 824.638 606.824 822.841 598.8C821.044 590.777 821.254 582.433 823.452 574.51C825.65 566.587 829.768 559.328 835.441 553.376C841.114 547.424 848.168 542.963 855.977 540.389C863.786 537.814 872.109 537.205 880.21 538.616C885.372 539.514 890.342 541.215 894.944 543.641C899.299 545.936 899.961 551.619 896.931 555.498C893.9 559.376 888.314 559.924 883.755 558.07C881.636 557.208 879.423 556.571 877.152 556.176C871.939 555.268 866.583 555.66 861.558 557.317C856.533 558.973 851.994 561.844 848.343 565.674C844.692 569.504 842.042 574.175 840.628 579.274C839.213 584.373 839.078 589.742 840.235 594.905C841.391 600.069 843.803 604.867 847.256 608.876C850.71 612.885 855.099 615.98 860.035 617.887C862.185 618.718 864.409 619.312 866.67 619.665C871.533 620.424 876.038 623.771 876.638 628.656Z" fill="#BFFBF1"/>
<path d="M912.187 583C917.072 582.4 921.602 585.896 921.326 590.81C921.034 596.005 919.932 601.141 918.044 606.028C915.08 613.698 910.27 620.518 904.041 625.885C897.812 631.252 890.355 635 882.331 636.797C874.307 638.594 865.964 638.384 858.041 636.186C850.117 633.988 842.858 629.871 836.906 624.197C830.955 618.524 826.494 611.47 823.919 603.661C821.345 595.852 820.736 587.529 822.146 579.428C823.045 574.266 824.746 569.297 827.172 564.694C829.467 560.339 835.15 559.677 839.028 562.708C842.907 565.738 843.454 571.324 841.6 575.883C840.738 578.002 840.102 580.215 839.706 582.486C838.798 587.699 839.19 593.055 840.847 598.08C842.504 603.105 845.374 607.644 849.205 611.295C853.035 614.946 857.706 617.596 862.805 619.01C867.904 620.425 873.272 620.56 878.436 619.403C883.599 618.247 888.398 615.835 892.407 612.382C896.415 608.928 899.51 604.539 901.418 599.603C902.248 597.453 902.843 595.229 903.196 592.968C903.955 588.105 907.301 583.6 912.187 583Z" fill="#BFFBF1"/>
<path d="M946.831 538.433C951.94 538.064 955.132 543.854 952.093 547.977L932.466 574.609C928.77 579.624 920.825 576.38 921.695 570.211L922.86 561.943C923.239 559.257 921.768 556.651 919.273 555.587L911.663 552.341C905.874 549.872 907.307 541.292 913.584 540.838L946.831 538.433Z" fill="#BFFBF1"/>
<path d="M772.265 566.171C768.391 562.82 770.227 556.468 775.292 555.701L808.002 550.749C814.161 549.816 817.486 557.727 812.509 561.474L805.839 566.496C803.671 568.128 802.869 571.011 803.88 573.528L806.966 581.204C809.314 587.043 802.234 592.097 797.474 587.98L772.265 566.171Z" fill="#BFFBF1"/>
<path d="M848.695 686.799C845.343 690.673 838.992 688.837 838.225 683.772L833.272 651.062C832.339 644.903 840.251 641.578 843.998 646.555L849.02 653.226C850.652 655.393 853.534 656.196 856.051 655.184L863.728 652.098C869.567 649.75 874.621 656.831 870.503 661.59L848.695 686.799Z" fill="#BFFBF1"/>
<circle cx="870.789" cy="588.288" r="13.5" transform="rotate(60 870.789 588.288)" fill="#BFFBF1"/>
<path d="M710.637 770.899C706.106 768.976 703.93 763.683 706.627 759.566C709.477 755.213 712.999 751.316 717.078 748.028C723.48 742.867 731.055 739.365 739.134 737.832C747.212 736.299 755.544 736.782 763.391 739.237C771.238 741.693 778.359 746.046 784.122 751.912C789.885 757.777 794.112 764.972 796.43 772.861C798.748 780.751 799.084 789.09 797.409 797.14C795.734 805.19 792.1 812.703 786.828 819.013C783.469 823.034 779.511 826.487 775.108 829.26C770.944 831.884 765.691 829.616 763.847 825.052C762.004 820.488 764.322 815.377 768.208 812.356C770.014 810.951 771.672 809.353 773.149 807.585C776.542 803.524 778.881 798.689 779.959 793.509C781.036 788.329 780.82 782.962 779.328 777.886C777.837 772.809 775.116 768.178 771.408 764.404C767.699 760.63 763.117 757.828 758.067 756.248C753.018 754.668 747.656 754.357 742.457 755.344C737.259 756.331 732.384 758.584 728.264 761.905C726.47 763.351 724.843 764.981 723.407 766.762C720.318 770.594 715.167 772.822 710.637 770.899Z" fill="#BFFBF1"/>
<path d="M732.402 824.513C730.478 829.044 725.186 831.219 721.068 828.523C716.715 825.673 712.818 822.151 709.53 818.072C704.37 811.67 700.868 804.094 699.335 796.016C697.801 787.938 698.284 779.606 700.74 771.759C703.196 763.912 707.549 756.791 713.414 751.028C719.279 745.265 726.475 741.038 734.364 738.72C742.253 736.402 750.592 736.066 758.642 737.741C766.692 739.416 774.205 743.05 780.515 748.322C784.536 751.681 787.99 755.639 790.763 760.041C793.386 764.206 791.118 769.459 786.555 771.303C781.991 773.146 776.88 770.828 773.858 766.942C772.454 765.136 770.856 763.478 769.087 762C765.027 758.608 760.192 756.269 755.012 755.191C749.831 754.113 744.465 754.33 739.388 755.821C734.311 757.313 729.681 760.033 725.907 763.742C722.132 767.451 719.331 772.033 717.751 777.082C716.17 782.132 715.86 787.494 716.846 792.692C717.833 797.891 720.087 802.766 723.407 806.885C724.854 808.68 726.483 810.307 728.264 811.742C732.096 814.832 734.325 819.983 732.402 824.513Z" fill="#BFFBF1"/>
<path d="M753.676 876.799C751.441 881.408 744.83 881.278 742.779 876.584L729.529 846.271C727.034 840.563 733.815 835.304 738.723 839.141L745.3 844.285C747.437 845.956 750.43 845.985 752.599 844.356L759.215 839.389C764.248 835.61 770.962 841.141 768.217 846.804L753.676 876.799Z" fill="#BFFBF1"/>
<path d="M816.937 711.752C821.776 710.072 826.359 714.839 824.491 719.608L812.425 750.412C810.153 756.213 801.639 755.136 800.883 748.953L799.868 740.665C799.539 737.972 797.444 735.835 794.758 735.453L786.567 734.288C780.337 733.401 779.5 724.742 785.446 722.679L816.937 711.752Z" fill="#BFFBF1"/>
<path d="M674.255 717.628C672.576 712.789 677.342 708.206 682.112 710.074L712.915 722.14C718.716 724.412 717.639 732.926 711.456 733.683L703.168 734.697C700.475 735.026 698.339 737.121 697.956 739.807L696.791 747.998C695.904 754.228 687.245 755.065 685.182 749.119L674.255 717.628Z" fill="#BFFBF1"/>
<circle cx="748.521" cy="786.018" r="13.5" transform="rotate(-180 748.521 786.018)" fill="#BFFBF1"/>
<path d="M721.74 679.341C717.809 682.303 712.138 681.541 709.92 677.147C707.576 672.502 705.962 667.504 705.154 662.327C703.886 654.203 704.641 645.891 707.352 638.129C710.063 630.366 714.647 623.392 720.698 617.824C726.748 612.256 734.078 608.266 742.039 606.207C750 604.149 758.345 604.086 766.336 606.023C774.328 607.96 781.717 611.839 787.852 617.314C793.986 622.79 798.675 629.694 801.504 637.414C803.306 642.334 804.318 647.488 804.519 652.687C804.708 657.606 800.118 661.021 795.243 660.336C790.369 659.651 787.102 655.087 786.429 650.211C786.115 647.945 785.56 645.71 784.767 643.546C782.947 638.578 779.93 634.135 775.982 630.612C772.035 627.088 767.279 624.592 762.137 623.346C756.994 622.099 751.624 622.14 746.501 623.464C741.378 624.789 736.661 627.356 732.768 630.939C728.874 634.522 725.924 639.01 724.18 644.006C722.435 649.001 721.949 654.35 722.765 659.578C723.12 661.855 723.718 664.079 724.543 666.213C726.317 670.804 725.671 676.379 721.74 679.341Z" fill="#BFFBF1"/>
<path d="M794.016 643.849C798.77 642.575 803.743 645.406 804.154 650.311C804.588 655.496 804.212 660.735 803.022 665.837C801.155 673.845 797.342 681.269 791.92 687.451C786.499 693.633 779.636 698.382 771.941 701.279C764.245 704.175 755.954 705.129 747.802 704.056C739.65 702.983 731.888 699.915 725.204 695.126C718.521 690.336 713.121 683.973 709.485 676.598C705.848 669.223 704.086 661.066 704.355 652.848C704.527 647.611 705.519 642.453 707.281 637.557C708.947 632.926 714.483 631.479 718.745 633.94C723.008 636.401 724.328 641.856 723.126 646.629C722.568 648.847 722.245 651.127 722.17 653.431C721.997 658.719 723.131 663.969 725.471 668.714C727.811 673.46 731.286 677.555 735.587 680.637C739.888 683.72 744.882 685.693 750.129 686.384C755.375 687.075 760.71 686.461 765.662 684.597C770.614 682.733 775.03 679.677 778.519 675.698C782.008 671.72 784.462 666.943 785.663 661.79C786.187 659.545 786.466 657.26 786.5 654.972C786.575 650.051 789.262 645.123 794.016 643.849Z" fill="#BFFBF1"/>
<circle cx="753.776" cy="654.091" r="13.5" transform="rotate(120 753.776 654.091)" fill="#BFFBF1"/>
<path d="M666.554 560.447C670.485 557.485 676.156 558.247 678.374 562.641C680.719 567.285 682.332 572.284 683.14 577.461C684.408 585.585 683.653 593.897 680.942 601.659C678.231 609.422 673.647 616.396 667.597 621.964C661.546 627.532 654.216 631.522 646.255 633.58C638.294 635.639 629.949 635.702 621.958 633.765C613.967 631.827 606.577 627.949 600.443 622.474C594.308 616.998 589.619 610.094 586.791 602.374C584.988 597.454 583.976 592.3 583.776 587.1C583.586 582.182 588.177 578.767 593.051 579.452C597.925 580.137 601.192 584.701 601.866 589.577C602.179 591.843 602.734 594.078 603.527 596.242C605.347 601.21 608.365 605.653 612.312 609.176C616.26 612.7 621.015 615.196 626.158 616.442C631.3 617.689 636.67 617.648 641.793 616.324C646.916 614.999 651.633 612.432 655.527 608.848C659.42 605.265 662.37 600.777 664.115 595.782C665.86 590.787 666.345 585.438 665.529 580.21C665.174 577.933 664.576 575.709 663.752 573.575C661.977 568.984 662.623 563.409 666.554 560.447Z" fill="#BFFBF1"/>
<path d="M609.24 552.488C606.278 548.557 607.04 542.886 611.434 540.668C616.078 538.324 621.077 536.71 626.254 535.902C634.378 534.634 642.69 535.389 650.452 538.1C658.215 540.811 665.189 545.395 670.757 551.446C676.325 557.496 680.315 564.826 682.373 572.787C684.432 580.748 684.495 589.093 682.558 597.084C680.62 605.075 676.742 612.465 671.267 618.6C665.791 624.734 658.887 629.423 651.167 632.252C646.247 634.054 641.092 635.066 635.893 635.266C630.975 635.456 627.56 630.865 628.245 625.991C628.93 621.117 633.494 617.85 638.37 617.177C640.636 616.863 642.87 616.308 645.035 615.515C650.003 613.695 654.446 610.678 657.969 606.73C661.493 602.783 663.989 598.027 665.235 592.885C666.482 587.742 666.441 582.372 665.117 577.249C663.792 572.126 661.224 567.409 657.641 563.516C654.058 559.622 649.57 556.672 644.575 554.927C639.58 553.183 634.231 552.697 629.003 553.513C626.726 553.868 624.502 554.466 622.368 555.291C617.777 557.065 612.202 556.419 609.24 552.488Z" fill="#BFFBF1"/>
<path d="M553.322 544.769C550.447 540.53 553.865 534.87 558.956 535.44L591.833 539.122C598.024 539.815 599.187 548.317 593.41 550.649L585.667 553.773C583.152 554.788 581.63 557.365 581.956 560.058L582.95 568.272C583.706 574.519 575.559 577.569 572.027 572.36L553.322 544.769Z" fill="#BFFBF1"/>
<path d="M664.627 682.079C663.661 687.11 657.242 688.695 654.046 684.692L633.402 658.841C629.514 653.973 634.703 647.138 640.437 649.575L648.121 652.841C650.618 653.902 653.516 653.155 655.19 651.021L660.295 644.51C664.178 639.557 672.095 643.162 670.909 649.343L664.627 682.079Z" fill="#BFFBF1"/>
<path d="M730.879 555.575C735.91 556.54 737.495 562.959 733.492 566.156L707.641 586.799C702.773 590.687 695.938 585.498 698.375 579.764L701.641 572.08C702.702 569.583 701.956 566.685 699.821 565.011L693.31 559.907C688.358 556.023 691.962 548.106 698.143 549.292L730.879 555.575Z" fill="#BFFBF1"/>
<circle cx="634.518" cy="585.696" r="13.5" transform="rotate(-60 634.518 585.696)" fill="#BFFBF1"/>
<path d="M266.57 771.544C262.039 769.621 259.863 764.329 262.56 760.211C265.41 755.858 268.932 751.961 273.011 748.673C279.413 743.512 286.988 740.011 295.067 738.477C303.145 736.944 311.477 737.427 319.324 739.882C327.171 742.338 334.292 746.692 340.055 752.557C345.818 758.422 350.045 765.617 352.363 773.506C354.681 781.396 355.017 789.735 353.342 797.785C351.667 805.835 348.033 813.348 342.761 819.658C339.402 823.679 335.444 827.132 331.042 829.905C326.877 832.529 321.624 830.261 319.78 825.697C317.937 821.133 320.255 816.022 324.141 813.001C325.947 811.597 327.605 809.998 329.083 808.23C332.475 804.169 334.814 799.334 335.892 794.154C336.969 788.974 336.753 783.607 335.262 778.531C333.77 773.454 331.05 768.823 327.341 765.049C323.632 761.275 319.05 758.474 314.001 756.893C308.951 755.313 303.589 755.002 298.391 755.989C293.192 756.976 288.317 759.229 284.198 762.55C282.403 763.996 280.776 765.626 279.341 767.407C276.251 771.239 271.1 773.467 266.57 771.544Z" fill="#BFFBF1"/>
<path d="M288.335 825.158C286.411 829.689 281.119 831.865 277.001 829.168C272.649 826.318 268.752 822.796 265.464 818.717C260.303 812.315 256.801 804.74 255.268 796.661C253.735 788.583 254.217 780.251 256.673 772.404C259.129 764.557 263.482 757.436 269.347 751.673C275.212 745.91 282.408 741.683 290.297 739.365C298.186 737.047 306.525 736.711 314.576 738.386C322.626 740.061 330.139 743.695 336.449 748.967C340.469 752.326 343.923 756.284 346.696 760.687C349.32 764.851 347.051 770.104 342.488 771.948C337.924 773.791 332.813 771.473 329.792 767.587C328.387 765.781 326.789 764.123 325.021 762.646C320.96 759.253 316.125 756.914 310.945 755.837C305.764 754.759 300.398 754.975 295.321 756.467C290.245 757.958 285.614 760.679 281.84 764.387C278.066 768.096 275.264 772.678 273.684 777.728C272.104 782.777 271.793 788.139 272.78 793.338C273.766 798.536 276.02 803.411 279.341 807.531C280.787 809.325 282.416 810.952 284.198 812.388C288.03 815.477 290.258 820.628 288.335 825.158Z" fill="#BFFBF1"/>
<path d="M309.609 877.444C307.374 882.054 300.764 881.924 298.712 877.23L285.462 846.917C282.967 841.208 289.748 835.95 294.656 839.787L301.234 844.93C303.37 846.601 306.363 846.631 308.532 845.002L315.148 840.034C320.181 836.255 326.895 841.787 324.15 847.45L309.609 877.444Z" fill="#BFFBF1"/>
<path d="M372.87 712.397C377.709 710.718 382.292 715.484 380.424 720.254L368.358 751.057C366.086 756.858 357.572 755.781 356.816 749.598L355.801 741.31C355.472 738.617 353.377 736.481 350.691 736.099L342.5 734.933C336.27 734.046 335.433 725.388 341.379 723.324L372.87 712.397Z" fill="#BFFBF1"/>
<path d="M230.188 718.273C228.509 713.434 233.275 708.851 238.045 710.719L268.849 722.785C274.649 725.057 273.573 733.571 267.389 734.328L259.101 735.342C256.408 735.671 254.272 737.766 253.89 740.452L252.724 748.643C251.837 754.873 243.179 755.71 241.116 749.764L230.188 718.273Z" fill="#BFFBF1"/>
<circle cx="304.454" cy="786.663" r="13.5" transform="rotate(-180 304.454 786.663)" fill="#BFFBF1"/>
<path d="M226.385 556.661C230.316 553.699 235.987 554.461 238.205 558.855C240.549 563.5 242.163 568.499 242.971 573.676C244.239 581.8 243.484 590.111 240.773 597.874C238.062 605.637 233.478 612.611 227.427 618.179C221.377 623.747 214.047 627.737 206.086 629.795C198.125 631.853 189.78 631.917 181.789 629.979C173.797 628.042 166.408 624.164 160.273 618.688C154.139 613.213 149.45 606.309 146.621 598.588C144.819 593.669 143.807 588.514 143.606 583.315C143.417 578.397 148.007 574.981 152.882 575.667C157.756 576.352 161.023 580.915 161.696 585.791C162.01 588.057 162.565 590.292 163.358 592.456C165.178 597.425 168.195 601.867 172.143 605.391C176.09 608.914 180.846 611.41 185.988 612.657C191.131 613.904 196.501 613.863 201.624 612.538C206.747 611.214 211.464 608.646 215.357 605.063C219.251 601.48 222.201 596.992 223.945 591.997C225.69 587.001 226.176 581.653 225.36 576.425C225.005 574.147 224.407 571.924 223.582 569.79C221.808 565.199 222.454 559.623 226.385 556.661Z" fill="#BFFBF1"/>
<path d="M169.071 548.703C166.109 544.772 166.871 539.101 171.265 536.883C175.91 534.539 180.908 532.925 186.085 532.117C194.209 530.849 202.521 531.604 210.283 534.315C218.046 537.026 225.02 541.61 230.588 547.661C236.156 553.711 240.146 561.041 242.205 569.002C244.263 576.963 244.326 585.308 242.389 593.299C240.452 601.291 236.573 608.68 231.098 614.815C225.622 620.949 218.718 625.638 210.998 628.467C206.078 630.269 200.924 631.281 195.725 631.482C190.806 631.671 187.391 627.081 188.076 622.206C188.761 617.332 193.325 614.065 198.201 613.392C200.467 613.078 202.702 612.523 204.866 611.73C209.834 609.91 214.277 606.893 217.8 602.945C221.324 598.998 223.82 594.242 225.066 589.1C226.313 583.957 226.272 578.587 224.948 573.464C223.623 568.341 221.056 563.624 217.473 559.731C213.89 555.837 209.402 552.887 204.406 551.143C199.411 549.398 194.062 548.912 188.834 549.728C186.557 550.083 184.333 550.681 182.199 551.506C177.608 553.28 172.033 552.634 169.071 548.703Z" fill="#BFFBF1"/>
<path d="M113.153 540.985C110.279 536.745 113.697 531.085 118.787 531.655L151.664 535.337C157.855 536.03 159.019 544.532 153.242 546.864L145.499 549.988C142.983 551.003 141.462 553.58 141.788 556.273L142.782 564.487C143.538 570.734 135.391 573.784 131.859 568.575L113.153 540.985Z" fill="#BFFBF1"/>
<path d="M224.457 678.294C223.492 683.325 217.073 684.91 213.877 680.907L193.233 655.056C189.345 650.188 194.534 643.353 200.268 645.79L207.952 649.056C210.449 650.117 213.347 649.37 215.021 647.236L220.126 640.725C224.009 635.772 231.926 639.377 230.74 645.558L224.457 678.294Z" fill="#BFFBF1"/>
<path d="M290.709 551.789C295.74 552.755 297.325 559.174 293.323 562.37L267.472 583.014C262.604 586.902 255.769 581.713 258.205 575.979L261.471 568.294C262.532 565.798 261.786 562.9 259.651 561.226L253.141 556.121C248.188 552.238 251.793 544.321 257.973 545.507L290.709 551.789Z" fill="#BFFBF1"/>
<circle cx="194.349" cy="581.911" r="13.5" transform="rotate(-60 194.349 581.911)" fill="#BFFBF1"/>
<path d="M300.124 612.056C299.525 607.171 303.02 602.641 307.934 602.917C313.129 603.209 318.265 604.311 323.152 606.199C330.822 609.163 337.642 613.973 343.009 620.202C348.376 626.432 352.124 633.888 353.921 641.912C355.718 649.936 355.508 658.279 353.31 666.203C351.113 674.126 346.995 681.385 341.321 687.337C335.648 693.289 328.594 697.749 320.785 700.324C312.976 702.899 304.653 703.508 296.552 702.097C291.39 701.198 286.421 699.497 281.818 697.071C277.463 694.777 276.801 689.093 279.832 685.215C282.862 681.336 288.448 680.789 293.007 682.643C295.126 683.505 297.339 684.142 299.61 684.537C304.823 685.445 310.179 685.053 315.204 683.396C320.23 681.739 324.769 678.869 328.419 675.039C332.07 671.209 334.72 666.537 336.135 661.438C337.549 656.34 337.684 650.971 336.528 645.807C335.371 640.644 332.96 635.845 329.506 631.837C326.052 627.828 321.663 624.733 316.727 622.826C314.577 621.995 312.353 621.401 310.092 621.048C305.229 620.288 300.724 616.942 300.124 612.056Z" fill="#BFFBF1"/>
<path d="M294.723 692.395C293.449 697.149 288.511 700.04 284.058 697.944C279.351 695.727 275.002 692.782 271.178 689.2C265.176 683.579 260.654 676.565 258.011 668.779C255.368 660.993 254.686 652.675 256.025 644.562C257.365 636.45 260.684 628.792 265.69 622.269C270.695 615.746 277.232 610.557 284.722 607.164C292.212 603.77 300.423 602.276 308.628 602.814C316.832 603.352 324.778 605.905 331.761 610.247C336.21 613.014 340.181 616.453 343.54 620.426C346.718 624.185 345.203 629.702 340.94 632.163C336.678 634.624 331.294 633.04 327.761 629.613C326.119 628.02 324.306 626.601 322.348 625.383C317.855 622.589 312.742 620.946 307.462 620.6C302.182 620.254 296.898 621.216 292.078 623.399C287.259 625.583 283.052 628.922 279.831 633.12C276.61 637.318 274.473 642.245 273.611 647.466C272.749 652.687 273.188 658.039 274.889 663.05C276.59 668.06 279.5 672.574 283.362 676.191C285.044 677.767 286.885 679.151 288.848 680.325C293.073 682.85 295.997 687.641 294.723 692.395Z" fill="#BFFBF1"/>
<circle cx="305.973" cy="652.425" r="13.5" transform="rotate(-120 305.973 652.425)" fill="#BFFBF1"/>
<path d="M430.683 623.711C431.283 628.596 427.787 633.126 422.873 632.85C417.678 632.558 412.542 631.456 407.655 629.568C399.985 626.604 393.165 621.795 387.798 615.565C382.431 609.336 378.683 601.879 376.886 593.855C375.089 585.831 375.299 577.488 377.497 569.565C379.695 561.641 383.813 554.382 389.486 548.43C395.159 542.479 402.213 538.018 410.022 535.443C417.831 532.869 426.154 532.26 434.255 533.67C439.417 534.569 444.387 536.27 448.989 538.696C453.344 540.991 454.006 546.674 450.976 550.553C447.945 554.431 442.359 554.979 437.8 553.124C435.681 552.262 433.468 551.626 431.197 551.23C425.985 550.323 420.628 550.714 415.603 552.371C410.578 554.028 406.039 556.899 402.388 560.729C398.737 564.559 396.087 569.23 394.673 574.329C393.258 579.428 393.123 584.797 394.28 589.96C395.436 595.124 397.848 599.922 401.301 603.931C404.755 607.94 409.144 611.035 414.08 612.942C416.23 613.773 418.454 614.367 420.715 614.72C425.578 615.479 430.083 618.825 430.683 623.711Z" fill="#BFFBF1"/>
<path d="M466.232 578.055C471.118 577.455 475.648 580.95 475.372 585.864C475.08 591.059 473.978 596.195 472.089 601.082C469.126 608.752 464.316 615.573 458.087 620.94C451.857 626.307 444.4 630.055 436.377 631.851C428.353 633.648 420.01 633.438 412.086 631.241C404.163 629.043 396.904 624.925 390.952 619.252C385 613.578 380.539 606.525 377.965 598.716C375.39 590.907 374.781 582.583 376.192 574.482C377.091 569.321 378.792 564.351 381.217 559.748C383.512 555.394 389.196 554.731 393.074 557.762C396.953 560.793 397.5 566.378 395.646 570.938C394.784 573.057 394.147 575.27 393.752 577.54C392.844 582.753 393.236 588.109 394.893 593.135C396.55 598.16 399.42 602.699 403.25 606.35C407.08 610.001 411.752 612.651 416.85 614.065C421.949 615.479 427.318 615.614 432.482 614.458C437.645 613.302 442.444 610.89 446.452 607.436C450.461 603.982 453.556 599.593 455.463 594.658C456.294 592.508 456.888 590.283 457.241 588.023C458 583.16 461.347 578.654 466.232 578.055Z" fill="#BFFBF1"/>
<path d="M500.876 533.488C505.985 533.118 509.178 538.908 506.139 543.032L486.512 569.663C482.816 574.678 474.871 571.434 475.74 565.266L476.906 556.998C477.285 554.311 475.814 551.705 473.319 550.641L465.708 547.395C459.92 544.926 461.353 536.346 467.63 535.892L500.876 533.488Z" fill="#BFFBF1"/>
<path d="M326.31 561.226C322.436 557.874 324.273 551.522 329.337 550.756L362.047 545.803C368.207 544.87 371.531 552.782 366.554 556.529L359.884 561.551C357.717 563.183 356.914 566.065 357.926 568.582L361.012 576.258C363.359 582.098 356.279 587.152 351.519 583.034L326.31 561.226Z" fill="#BFFBF1"/>
<path d="M402.74 681.854C399.388 685.728 393.037 683.891 392.27 678.827L387.317 646.117C386.385 639.957 394.296 636.633 398.043 641.61L403.065 648.28C404.697 650.448 407.58 651.25 410.097 650.238L417.773 647.152C423.612 644.805 428.666 651.885 424.548 656.645L402.74 681.854Z" fill="#BFFBF1"/>
<circle cx="424.835" cy="583.342" r="13.5" transform="rotate(60 424.835 583.342)" fill="#BFFBF1"/>
</svg>
